<?xml version="1.0" encoding="utf-8" standalone="no"?>
<!DOCTYPE svg PUBLIC "-//W3C//DTD SVG 1.1//EN"
  "http://www.w3.org/Graphics/SVG/1.1/DTD/svg11.dtd">
<svg xmlns:xlink="http://www.w3.org/1999/xlink" width="720pt" height="576pt" viewBox="0 0 720 576" xmlns="http://www.w3.org/2000/svg" version="1.1">
 <metadata>
  <rdf:RDF xmlns:dc="http://purl.org/dc/elements/1.1/" xmlns:cc="http://creativecommons.org/ns#" xmlns:rdf="http://www.w3.org/1999/02/22-rdf-syntax-ns#">
   <cc:Work>
    <dc:type rdf:resource="http://purl.org/dc/dcmitype/StillImage"/>
    <dc:date>2024-03-05T23:06:00.565310</dc:date>
    <dc:format>image/svg+xml</dc:format>
    <dc:creator>
     <cc:Agent>
      <dc:title>Matplotlib v3.5.1, https://matplotlib.org/</dc:title>
     </cc:Agent>
    </dc:creator>
   </cc:Work>
  </rdf:RDF>
 </metadata>
 <defs>
  <style type="text/css">*{stroke-linejoin: round; stroke-linecap: butt}</style>
 </defs>
 <g id="figure_1">
  <g id="patch_1">
   <path d="M 0 576 
L 720 576 
L 720 0 
L 0 0 
z
" style="fill: #ffffff"/>
  </g>
  <g id="axes_1">
   <g id="patch_2">
    <path d="M 90 512.64 
L 648 512.64 
L 648 69.12 
L 90 69.12 
z
" style="fill: #ffffff"/>
   </g>
   <g id="matplotlib.axis_1">
    <g id="xtick_1">
     <g id="line2d_1">
      <defs>
       <path id="m45b793bf91" d="M 0 0 
L 0 3.5 
" style="stroke: #000000; stroke-width: 0.8"/>
      </defs>
      <g>
       <use xlink:href="#m45b793bf91" x="90" y="512.64" style="stroke: #000000; stroke-width: 0.8"/>
      </g>
     </g>
     <g id="text_1">
      <!-- 0.0 -->
      <g transform="translate(75.687187 533.317188)scale(0.18 -0.18)">
       <defs>
        <path id="DejaVuSans-30" d="M 2034 4250 
Q 1547 4250 1301 3770 
Q 1056 3291 1056 2328 
Q 1056 1369 1301 889 
Q 1547 409 2034 409 
Q 2525 409 2770 889 
Q 3016 1369 3016 2328 
Q 3016 3291 2770 3770 
Q 2525 4250 2034 4250 
z
M 2034 4750 
Q 2819 4750 3233 4129 
Q 3647 3509 3647 2328 
Q 3647 1150 3233 529 
Q 2819 -91 2034 -91 
Q 1250 -91 836 529 
Q 422 1150 422 2328 
Q 422 3509 836 4129 
Q 1250 4750 2034 4750 
z
" transform="scale(0.015625)"/>
        <path id="DejaVuSans-2e" d="M 684 794 
L 1344 794 
L 1344 0 
L 684 0 
L 684 794 
z
" transform="scale(0.015625)"/>
       </defs>
       <use xlink:href="#DejaVuSans-30"/>
       <use xlink:href="#DejaVuSans-2e" x="63.623047"/>
       <use xlink:href="#DejaVuSans-30" x="95.410156"/>
      </g>
     </g>
    </g>
    <g id="xtick_2">
     <g id="line2d_2">
      <g>
       <use xlink:href="#m45b793bf91" x="201.6" y="512.64" style="stroke: #000000; stroke-width: 0.8"/>
      </g>
     </g>
     <g id="text_2">
      <!-- 0.2 -->
      <g transform="translate(187.287188 533.317188)scale(0.18 -0.18)">
       <defs>
        <path id="DejaVuSans-32" d="M 1228 531 
L 3431 531 
L 3431 0 
L 469 0 
L 469 531 
Q 828 903 1448 1529 
Q 2069 2156 2228 2338 
Q 2531 2678 2651 2914 
Q 2772 3150 2772 3378 
Q 2772 3750 2511 3984 
Q 2250 4219 1831 4219 
Q 1534 4219 1204 4116 
Q 875 4013 500 3803 
L 500 4441 
Q 881 4594 1212 4672 
Q 1544 4750 1819 4750 
Q 2544 4750 2975 4387 
Q 3406 4025 3406 3419 
Q 3406 3131 3298 2873 
Q 3191 2616 2906 2266 
Q 2828 2175 2409 1742 
Q 1991 1309 1228 531 
z
" transform="scale(0.015625)"/>
       </defs>
       <use xlink:href="#DejaVuSans-30"/>
       <use xlink:href="#DejaVuSans-2e" x="63.623047"/>
       <use xlink:href="#DejaVuSans-32" x="95.410156"/>
      </g>
     </g>
    </g>
    <g id="xtick_3">
     <g id="line2d_3">
      <g>
       <use xlink:href="#m45b793bf91" x="313.2" y="512.64" style="stroke: #000000; stroke-width: 0.8"/>
      </g>
     </g>
     <g id="text_3">
      <!-- 0.4 -->
      <g transform="translate(298.887188 533.317188)scale(0.18 -0.18)">
       <defs>
        <path id="DejaVuSans-34" d="M 2419 4116 
L 825 1625 
L 2419 1625 
L 2419 4116 
z
M 2253 4666 
L 3047 4666 
L 3047 1625 
L 3713 1625 
L 3713 1100 
L 3047 1100 
L 3047 0 
L 2419 0 
L 2419 1100 
L 313 1100 
L 313 1709 
L 2253 4666 
z
" transform="scale(0.015625)"/>
       </defs>
       <use xlink:href="#DejaVuSans-30"/>
       <use xlink:href="#DejaVuSans-2e" x="63.623047"/>
       <use xlink:href="#DejaVuSans-34" x="95.410156"/>
      </g>
     </g>
    </g>
    <g id="xtick_4">
     <g id="line2d_4">
      <g>
       <use xlink:href="#m45b793bf91" x="424.8" y="512.64" style="stroke: #000000; stroke-width: 0.8"/>
      </g>
     </g>
     <g id="text_4">
      <!-- 0.6 -->
      <g transform="translate(410.487188 533.317188)scale(0.18 -0.18)">
       <defs>
        <path id="DejaVuSans-36" d="M 2113 2584 
Q 1688 2584 1439 2293 
Q 1191 2003 1191 1497 
Q 1191 994 1439 701 
Q 1688 409 2113 409 
Q 2538 409 2786 701 
Q 3034 994 3034 1497 
Q 3034 2003 2786 2293 
Q 2538 2584 2113 2584 
z
M 3366 4563 
L 3366 3988 
Q 3128 4100 2886 4159 
Q 2644 4219 2406 4219 
Q 1781 4219 1451 3797 
Q 1122 3375 1075 2522 
Q 1259 2794 1537 2939 
Q 1816 3084 2150 3084 
Q 2853 3084 3261 2657 
Q 3669 2231 3669 1497 
Q 3669 778 3244 343 
Q 2819 -91 2113 -91 
Q 1303 -91 875 529 
Q 447 1150 447 2328 
Q 447 3434 972 4092 
Q 1497 4750 2381 4750 
Q 2619 4750 2861 4703 
Q 3103 4656 3366 4563 
z
" transform="scale(0.015625)"/>
       </defs>
       <use xlink:href="#DejaVuSans-30"/>
       <use xlink:href="#DejaVuSans-2e" x="63.623047"/>
       <use xlink:href="#DejaVuSans-36" x="95.410156"/>
      </g>
     </g>
    </g>
    <g id="xtick_5">
     <g id="line2d_5">
      <g>
       <use xlink:href="#m45b793bf91" x="536.4" y="512.64" style="stroke: #000000; stroke-width: 0.8"/>
      </g>
     </g>
     <g id="text_5">
      <!-- 0.8 -->
      <g transform="translate(522.087188 533.317188)scale(0.18 -0.18)">
       <defs>
        <path id="DejaVuSans-38" d="M 2034 2216 
Q 1584 2216 1326 1975 
Q 1069 1734 1069 1313 
Q 1069 891 1326 650 
Q 1584 409 2034 409 
Q 2484 409 2743 651 
Q 3003 894 3003 1313 
Q 3003 1734 2745 1975 
Q 2488 2216 2034 2216 
z
M 1403 2484 
Q 997 2584 770 2862 
Q 544 3141 544 3541 
Q 544 4100 942 4425 
Q 1341 4750 2034 4750 
Q 2731 4750 3128 4425 
Q 3525 4100 3525 3541 
Q 3525 3141 3298 2862 
Q 3072 2584 2669 2484 
Q 3125 2378 3379 2068 
Q 3634 1759 3634 1313 
Q 3634 634 3220 271 
Q 2806 -91 2034 -91 
Q 1263 -91 848 271 
Q 434 634 434 1313 
Q 434 1759 690 2068 
Q 947 2378 1403 2484 
z
M 1172 3481 
Q 1172 3119 1398 2916 
Q 1625 2713 2034 2713 
Q 2441 2713 2670 2916 
Q 2900 3119 2900 3481 
Q 2900 3844 2670 4047 
Q 2441 4250 2034 4250 
Q 1625 4250 1398 4047 
Q 1172 3844 1172 3481 
z
" transform="scale(0.015625)"/>
       </defs>
       <use xlink:href="#DejaVuSans-30"/>
       <use xlink:href="#DejaVuSans-2e" x="63.623047"/>
       <use xlink:href="#DejaVuSans-38" x="95.410156"/>
      </g>
     </g>
    </g>
    <g id="xtick_6">
     <g id="line2d_6">
      <g>
       <use xlink:href="#m45b793bf91" x="648" y="512.64" style="stroke: #000000; stroke-width: 0.8"/>
      </g>
     </g>
     <g id="text_6">
      <!-- 1.0 -->
      <g transform="translate(633.687188 533.317188)scale(0.18 -0.18)">
       <defs>
        <path id="DejaVuSans-31" d="M 794 531 
L 1825 531 
L 1825 4091 
L 703 3866 
L 703 4441 
L 1819 4666 
L 2450 4666 
L 2450 531 
L 3481 531 
L 3481 0 
L 794 0 
L 794 531 
z
" transform="scale(0.015625)"/>
       </defs>
       <use xlink:href="#DejaVuSans-31"/>
       <use xlink:href="#DejaVuSans-2e" x="63.623047"/>
       <use xlink:href="#DejaVuSans-30" x="95.410156"/>
      </g>
     </g>
    </g>
    <g id="text_7">
     <!-- False Positive Rate -->
     <g transform="translate(313.240313 550.17875)scale(0.12 -0.12)">
      <defs>
       <path id="DejaVuSans-46" d="M 628 4666 
L 3309 4666 
L 3309 4134 
L 1259 4134 
L 1259 2759 
L 3109 2759 
L 3109 2228 
L 1259 2228 
L 1259 0 
L 628 0 
L 628 4666 
z
" transform="scale(0.015625)"/>
       <path id="DejaVuSans-61" d="M 2194 1759 
Q 1497 1759 1228 1600 
Q 959 1441 959 1056 
Q 959 750 1161 570 
Q 1363 391 1709 391 
Q 2188 391 2477 730 
Q 2766 1069 2766 1631 
L 2766 1759 
L 2194 1759 
z
M 3341 1997 
L 3341 0 
L 2766 0 
L 2766 531 
Q 2569 213 2275 61 
Q 1981 -91 1556 -91 
Q 1019 -91 701 211 
Q 384 513 384 1019 
Q 384 1609 779 1909 
Q 1175 2209 1959 2209 
L 2766 2209 
L 2766 2266 
Q 2766 2663 2505 2880 
Q 2244 3097 1772 3097 
Q 1472 3097 1187 3025 
Q 903 2953 641 2809 
L 641 3341 
Q 956 3463 1253 3523 
Q 1550 3584 1831 3584 
Q 2591 3584 2966 3190 
Q 3341 2797 3341 1997 
z
" transform="scale(0.015625)"/>
       <path id="DejaVuSans-6c" d="M 603 4863 
L 1178 4863 
L 1178 0 
L 603 0 
L 603 4863 
z
" transform="scale(0.015625)"/>
       <path id="DejaVuSans-73" d="M 2834 3397 
L 2834 2853 
Q 2591 2978 2328 3040 
Q 2066 3103 1784 3103 
Q 1356 3103 1142 2972 
Q 928 2841 928 2578 
Q 928 2378 1081 2264 
Q 1234 2150 1697 2047 
L 1894 2003 
Q 2506 1872 2764 1633 
Q 3022 1394 3022 966 
Q 3022 478 2636 193 
Q 2250 -91 1575 -91 
Q 1294 -91 989 -36 
Q 684 19 347 128 
L 347 722 
Q 666 556 975 473 
Q 1284 391 1588 391 
Q 1994 391 2212 530 
Q 2431 669 2431 922 
Q 2431 1156 2273 1281 
Q 2116 1406 1581 1522 
L 1381 1569 
Q 847 1681 609 1914 
Q 372 2147 372 2553 
Q 372 3047 722 3315 
Q 1072 3584 1716 3584 
Q 2034 3584 2315 3537 
Q 2597 3491 2834 3397 
z
" transform="scale(0.015625)"/>
       <path id="DejaVuSans-65" d="M 3597 1894 
L 3597 1613 
L 953 1613 
Q 991 1019 1311 708 
Q 1631 397 2203 397 
Q 2534 397 2845 478 
Q 3156 559 3463 722 
L 3463 178 
Q 3153 47 2828 -22 
Q 2503 -91 2169 -91 
Q 1331 -91 842 396 
Q 353 884 353 1716 
Q 353 2575 817 3079 
Q 1281 3584 2069 3584 
Q 2775 3584 3186 3129 
Q 3597 2675 3597 1894 
z
M 3022 2063 
Q 3016 2534 2758 2815 
Q 2500 3097 2075 3097 
Q 1594 3097 1305 2825 
Q 1016 2553 972 2059 
L 3022 2063 
z
" transform="scale(0.015625)"/>
       <path id="DejaVuSans-20" transform="scale(0.015625)"/>
       <path id="DejaVuSans-50" d="M 1259 4147 
L 1259 2394 
L 2053 2394 
Q 2494 2394 2734 2622 
Q 2975 2850 2975 3272 
Q 2975 3691 2734 3919 
Q 2494 4147 2053 4147 
L 1259 4147 
z
M 628 4666 
L 2053 4666 
Q 2838 4666 3239 4311 
Q 3641 3956 3641 3272 
Q 3641 2581 3239 2228 
Q 2838 1875 2053 1875 
L 1259 1875 
L 1259 0 
L 628 0 
L 628 4666 
z
" transform="scale(0.015625)"/>
       <path id="DejaVuSans-6f" d="M 1959 3097 
Q 1497 3097 1228 2736 
Q 959 2375 959 1747 
Q 959 1119 1226 758 
Q 1494 397 1959 397 
Q 2419 397 2687 759 
Q 2956 1122 2956 1747 
Q 2956 2369 2687 2733 
Q 2419 3097 1959 3097 
z
M 1959 3584 
Q 2709 3584 3137 3096 
Q 3566 2609 3566 1747 
Q 3566 888 3137 398 
Q 2709 -91 1959 -91 
Q 1206 -91 779 398 
Q 353 888 353 1747 
Q 353 2609 779 3096 
Q 1206 3584 1959 3584 
z
" transform="scale(0.015625)"/>
       <path id="DejaVuSans-69" d="M 603 3500 
L 1178 3500 
L 1178 0 
L 603 0 
L 603 3500 
z
M 603 4863 
L 1178 4863 
L 1178 4134 
L 603 4134 
L 603 4863 
z
" transform="scale(0.015625)"/>
       <path id="DejaVuSans-74" d="M 1172 4494 
L 1172 3500 
L 2356 3500 
L 2356 3053 
L 1172 3053 
L 1172 1153 
Q 1172 725 1289 603 
Q 1406 481 1766 481 
L 2356 481 
L 2356 0 
L 1766 0 
Q 1100 0 847 248 
Q 594 497 594 1153 
L 594 3053 
L 172 3053 
L 172 3500 
L 594 3500 
L 594 4494 
L 1172 4494 
z
" transform="scale(0.015625)"/>
       <path id="DejaVuSans-76" d="M 191 3500 
L 800 3500 
L 1894 563 
L 2988 3500 
L 3597 3500 
L 2284 0 
L 1503 0 
L 191 3500 
z
" transform="scale(0.015625)"/>
       <path id="DejaVuSans-52" d="M 2841 2188 
Q 3044 2119 3236 1894 
Q 3428 1669 3622 1275 
L 4263 0 
L 3584 0 
L 2988 1197 
Q 2756 1666 2539 1819 
Q 2322 1972 1947 1972 
L 1259 1972 
L 1259 0 
L 628 0 
L 628 4666 
L 2053 4666 
Q 2853 4666 3247 4331 
Q 3641 3997 3641 3322 
Q 3641 2881 3436 2590 
Q 3231 2300 2841 2188 
z
M 1259 4147 
L 1259 2491 
L 2053 2491 
Q 2509 2491 2742 2702 
Q 2975 2913 2975 3322 
Q 2975 3731 2742 3939 
Q 2509 4147 2053 4147 
L 1259 4147 
z
" transform="scale(0.015625)"/>
      </defs>
      <use xlink:href="#DejaVuSans-46"/>
      <use xlink:href="#DejaVuSans-61" x="48.394531"/>
      <use xlink:href="#DejaVuSans-6c" x="109.673828"/>
      <use xlink:href="#DejaVuSans-73" x="137.457031"/>
      <use xlink:href="#DejaVuSans-65" x="189.556641"/>
      <use xlink:href="#DejaVuSans-20" x="251.080078"/>
      <use xlink:href="#DejaVuSans-50" x="282.867188"/>
      <use xlink:href="#DejaVuSans-6f" x="339.544922"/>
      <use xlink:href="#DejaVuSans-73" x="400.726562"/>
      <use xlink:href="#DejaVuSans-69" x="452.826172"/>
      <use xlink:href="#DejaVuSans-74" x="480.609375"/>
      <use xlink:href="#DejaVuSans-69" x="519.818359"/>
      <use xlink:href="#DejaVuSans-76" x="547.601562"/>
      <use xlink:href="#DejaVuSans-65" x="606.78125"/>
      <use xlink:href="#DejaVuSans-20" x="668.304688"/>
      <use xlink:href="#DejaVuSans-52" x="700.091797"/>
      <use xlink:href="#DejaVuSans-61" x="767.324219"/>
      <use xlink:href="#DejaVuSans-74" x="828.603516"/>
      <use xlink:href="#DejaVuSans-65" x="867.8125"/>
     </g>
    </g>
   </g>
   <g id="matplotlib.axis_2">
    <g id="ytick_1">
     <g id="line2d_7">
      <defs>
       <path id="m20b8b04560" d="M 0 0 
L -3.5 0 
" style="stroke: #000000; stroke-width: 0.8"/>
      </defs>
      <g>
       <use xlink:href="#m20b8b04560" x="90" y="512.64" style="stroke: #000000; stroke-width: 0.8"/>
      </g>
     </g>
     <g id="text_8">
      <!-- 0.0 -->
      <g transform="translate(54.374375 519.478594)scale(0.18 -0.18)">
       <use xlink:href="#DejaVuSans-30"/>
       <use xlink:href="#DejaVuSans-2e" x="63.623047"/>
       <use xlink:href="#DejaVuSans-30" x="95.410156"/>
      </g>
     </g>
    </g>
    <g id="ytick_2">
     <g id="line2d_8">
      <g>
       <use xlink:href="#m20b8b04560" x="90" y="428.16" style="stroke: #000000; stroke-width: 0.8"/>
      </g>
     </g>
     <g id="text_9">
      <!-- 0.2 -->
      <g transform="translate(54.374375 434.998594)scale(0.18 -0.18)">
       <use xlink:href="#DejaVuSans-30"/>
       <use xlink:href="#DejaVuSans-2e" x="63.623047"/>
       <use xlink:href="#DejaVuSans-32" x="95.410156"/>
      </g>
     </g>
    </g>
    <g id="ytick_3">
     <g id="line2d_9">
      <g>
       <use xlink:href="#m20b8b04560" x="90" y="343.68" style="stroke: #000000; stroke-width: 0.8"/>
      </g>
     </g>
     <g id="text_10">
      <!-- 0.4 -->
      <g transform="translate(54.374375 350.518594)scale(0.18 -0.18)">
       <use xlink:href="#DejaVuSans-30"/>
       <use xlink:href="#DejaVuSans-2e" x="63.623047"/>
       <use xlink:href="#DejaVuSans-34" x="95.410156"/>
      </g>
     </g>
    </g>
    <g id="ytick_4">
     <g id="line2d_10">
      <g>
       <use xlink:href="#m20b8b04560" x="90" y="259.2" style="stroke: #000000; stroke-width: 0.8"/>
      </g>
     </g>
     <g id="text_11">
      <!-- 0.6 -->
      <g transform="translate(54.374375 266.038594)scale(0.18 -0.18)">
       <use xlink:href="#DejaVuSans-30"/>
       <use xlink:href="#DejaVuSans-2e" x="63.623047"/>
       <use xlink:href="#DejaVuSans-36" x="95.410156"/>
      </g>
     </g>
    </g>
    <g id="ytick_5">
     <g id="line2d_11">
      <g>
       <use xlink:href="#m20b8b04560" x="90" y="174.72" style="stroke: #000000; stroke-width: 0.8"/>
      </g>
     </g>
     <g id="text_12">
      <!-- 0.8 -->
      <g transform="translate(54.374375 181.558594)scale(0.18 -0.18)">
       <use xlink:href="#DejaVuSans-30"/>
       <use xlink:href="#DejaVuSans-2e" x="63.623047"/>
       <use xlink:href="#DejaVuSans-38" x="95.410156"/>
      </g>
     </g>
    </g>
    <g id="ytick_6">
     <g id="line2d_12">
      <g>
       <use xlink:href="#m20b8b04560" x="90" y="90.24" style="stroke: #000000; stroke-width: 0.8"/>
      </g>
     </g>
     <g id="text_13">
      <!-- 1.0 -->
      <g transform="translate(54.374375 97.078594)scale(0.18 -0.18)">
       <use xlink:href="#DejaVuSans-31"/>
       <use xlink:href="#DejaVuSans-2e" x="63.623047"/>
       <use xlink:href="#DejaVuSans-30" x="95.410156"/>
      </g>
     </g>
    </g>
    <g id="text_14">
     <!-- True Positive Rate -->
     <g transform="translate(47.87875 344.315625)rotate(-90)scale(0.12 -0.12)">
      <defs>
       <path id="DejaVuSans-54" d="M -19 4666 
L 3928 4666 
L 3928 4134 
L 2272 4134 
L 2272 0 
L 1638 0 
L 1638 4134 
L -19 4134 
L -19 4666 
z
" transform="scale(0.015625)"/>
       <path id="DejaVuSans-72" d="M 2631 2963 
Q 2534 3019 2420 3045 
Q 2306 3072 2169 3072 
Q 1681 3072 1420 2755 
Q 1159 2438 1159 1844 
L 1159 0 
L 581 0 
L 581 3500 
L 1159 3500 
L 1159 2956 
Q 1341 3275 1631 3429 
Q 1922 3584 2338 3584 
Q 2397 3584 2469 3576 
Q 2541 3569 2628 3553 
L 2631 2963 
z
" transform="scale(0.015625)"/>
       <path id="DejaVuSans-75" d="M 544 1381 
L 544 3500 
L 1119 3500 
L 1119 1403 
Q 1119 906 1312 657 
Q 1506 409 1894 409 
Q 2359 409 2629 706 
Q 2900 1003 2900 1516 
L 2900 3500 
L 3475 3500 
L 3475 0 
L 2900 0 
L 2900 538 
Q 2691 219 2414 64 
Q 2138 -91 1772 -91 
Q 1169 -91 856 284 
Q 544 659 544 1381 
z
M 1991 3584 
L 1991 3584 
z
" transform="scale(0.015625)"/>
      </defs>
      <use xlink:href="#DejaVuSans-54"/>
      <use xlink:href="#DejaVuSans-72" x="46.333984"/>
      <use xlink:href="#DejaVuSans-75" x="87.447266"/>
      <use xlink:href="#DejaVuSans-65" x="150.826172"/>
      <use xlink:href="#DejaVuSans-20" x="212.349609"/>
      <use xlink:href="#DejaVuSans-50" x="244.136719"/>
      <use xlink:href="#DejaVuSans-6f" x="300.814453"/>
      <use xlink:href="#DejaVuSans-73" x="361.996094"/>
      <use xlink:href="#DejaVuSans-69" x="414.095703"/>
      <use xlink:href="#DejaVuSans-74" x="441.878906"/>
      <use xlink:href="#DejaVuSans-69" x="481.087891"/>
      <use xlink:href="#DejaVuSans-76" x="508.871094"/>
      <use xlink:href="#DejaVuSans-65" x="568.050781"/>
      <use xlink:href="#DejaVuSans-20" x="629.574219"/>
      <use xlink:href="#DejaVuSans-52" x="661.361328"/>
      <use xlink:href="#DejaVuSans-61" x="728.59375"/>
      <use xlink:href="#DejaVuSans-74" x="789.873047"/>
      <use xlink:href="#DejaVuSans-65" x="829.082031"/>
     </g>
    </g>
   </g>
   <g id="line2d_13">
    <path d="M 90 512.64 
L 90 455.04 
L 92.498946 455.04 
L 92.498946 445.44 
L 94.262908 445.44 
L 94.262908 435.84 
L 97.349842 435.84 
L 97.349842 426.24 
L 100.436776 426.24 
L 100.436776 416.64 
L 100.877766 416.64 
L 100.877766 407.04 
L 101.024763 407.04 
L 101.024763 397.44 
L 104.111697 397.44 
L 104.111697 387.84 
L 109.55058 387.84 
L 109.55058 378.24 
L 116.165437 378.24 
L 116.165437 368.64 
L 122.780295 368.64 
L 122.780295 359.04 
L 124.691254 359.04 
L 124.691254 349.44 
L 129.101159 349.44 
L 129.101159 339.84 
L 129.836143 339.84 
L 129.836143 330.24 
L 131.012118 330.24 
L 131.012118 320.64 
L 134.981033 320.64 
L 134.981033 311.04 
L 138.508957 311.04 
L 138.508957 301.44 
L 144.38883 301.44 
L 144.38883 291.84 
L 155.707587 291.84 
L 155.707587 282.24 
L 163.645416 282.24 
L 163.645416 272.64 
L 173.200211 272.64 
L 173.200211 263.04 
L 178.051106 263.04 
L 178.051106 253.44 
L 178.198103 253.44 
L 178.198103 243.84 
L 179.080084 243.84 
L 179.080084 234.24 
L 179.374078 234.24 
L 179.374078 224.64 
L 188.487882 224.64 
L 188.487882 215.04 
L 197.160695 215.04 
L 197.160695 205.44 
L 204.510537 205.44 
L 204.510537 195.84 
L 209.802424 195.84 
L 209.802424 186.24 
L 212.595364 186.24 
L 212.595364 176.64 
L 215.5353 176.64 
L 215.829294 176.64 
L 219.945205 176.64 
L 219.945205 167.04 
L 225.972076 167.04 
L 225.972076 157.44 
L 228.471022 157.44 
L 228.471022 147.84 
L 232.880927 147.84 
L 232.880927 138.24 
L 233.321918 138.24 
L 233.321918 128.64 
L 238.613804 128.64 
L 238.613804 119.04 
L 267.278188 119.04 
L 267.278188 109.44 
L 310.348261 109.44 
L 310.348261 99.84 
L 352.683351 99.84 
L 352.683351 90.24 
L 479.541623 90.24 
L 648 90.24 
" clip-path="url(#pb201212d19)" style="fill: none; stroke: #1f77b4; stroke-width: 2; stroke-linecap: square"/>
   </g>
   <g id="line2d_14">
    <path d="M 90 512.64 
L 90 324.906667 
L 91.019577 324.906667 
L 91.019577 277.973333 
L 133.113547 277.973333 
L 133.113547 231.04 
L 137.628818 231.04 
L 137.628818 184.106667 
L 149.718089 184.106667 
L 149.718089 137.173333 
L 213.951449 137.173333 
L 213.951449 90.24 
L 480.78935 90.24 
L 648 90.24 
" clip-path="url(#pb201212d19)" style="fill: none; stroke: #ff7f0e; stroke-width: 2; stroke-linecap: square"/>
   </g>
   <g id="line2d_15">
    <path d="M 90 512.64 
L 90 428.16 
L 91.748303 428.16 
L 91.748303 385.92 
L 97.284595 385.92 
L 97.284595 343.68 
L 97.575979 343.68 
L 97.575979 301.44 
L 114.767624 301.44 
L 114.767624 259.2 
L 118.26423 259.2 
L 118.26423 216.96 
L 140.846475 216.96 
L 140.846475 174.72 
L 214.129504 174.72 
L 214.420888 174.72 
L 216.169191 174.72 
L 216.169191 132.48 
L 226.659008 132.48 
L 226.659008 90.24 
L 480.454308 90.24 
L 648 90.24 
" clip-path="url(#pb201212d19)" style="fill: none; stroke: #2ca02c; stroke-width: 2; stroke-linecap: square"/>
   </g>
   <g id="line2d_16">
    <path d="M 90 512.64 
L 90 417.81551 
L 91.640299 417.81551 
L 91.640299 413.505306 
L 93.280599 413.505306 
L 93.280599 409.195102 
L 94.473544 409.195102 
L 94.473544 404.884898 
L 95.51737 404.884898 
L 95.51737 400.574694 
L 96.561197 400.574694 
L 96.561197 396.26449 
L 98.201497 396.26449 
L 98.201497 391.954286 
L 98.648851 391.954286 
L 98.648851 383.333878 
L 99.245323 383.333878 
L 99.245323 379.023673 
L 102.973276 379.023673 
L 102.973276 374.713469 
L 104.166221 374.713469 
L 104.166221 366.093061 
L 104.464458 366.093061 
L 104.464458 361.782857 
L 109.385355 361.782857 
L 109.385355 357.472653 
L 111.025655 357.472653 
L 111.025655 353.162449 
L 111.920363 353.162449 
L 111.920363 348.852245 
L 114.60449 348.852245 
L 114.60449 344.542041 
L 115.797435 344.542041 
L 115.797435 335.921633 
L 119.525387 335.921633 
L 119.525387 331.611429 
L 120.270978 331.611429 
L 120.270978 327.301224 
L 122.656868 327.301224 
L 122.656868 322.99102 
L 123.25334 322.99102 
L 123.25334 318.680816 
L 123.551577 318.680816 
L 123.551577 314.370612 
L 123.700695 314.370612 
L 123.700695 310.060408 
L 125.042758 310.060408 
L 125.042758 301.44 
L 126.981293 301.44 
L 126.981293 297.129796 
L 130.261892 297.129796 
L 130.261892 292.819592 
L 132.7969 292.819592 
L 132.7969 288.509388 
L 134.437199 288.509388 
L 134.437199 284.199184 
L 134.586317 284.199184 
L 134.586317 279.88898 
L 137.56868 279.88898 
L 137.56868 275.578776 
L 138.016034 275.578776 
L 138.016034 271.268571 
L 140.401924 271.268571 
L 140.401924 266.958367 
L 141.445751 266.958367 
L 141.445751 262.648163 
L 141.594869 262.648163 
L 141.594869 258.337959 
L 148.305184 258.337959 
L 148.305184 254.027755 
L 148.454303 254.027755 
L 148.454303 249.717551 
L 149.199893 249.717551 
L 149.199893 245.407347 
L 153.822555 245.407347 
L 153.822555 241.097143 
L 155.462854 241.097143 
L 155.462854 236.786939 
L 156.655799 236.786939 
L 156.655799 228.166531 
L 158.743453 228.166531 
L 158.743453 223.856327 
L 160.53287 223.856327 
L 160.53287 219.546122 
L 161.278461 219.546122 
L 161.278461 215.235918 
L 162.173169 215.235918 
L 162.173169 210.925714 
L 164.857296 210.925714 
L 164.857296 206.61551 
L 165.30465 206.61551 
L 165.30465 202.305306 
L 166.497595 202.305306 
L 166.497595 193.684898 
L 172.909674 193.684898 
L 172.909674 185.06449 
L 178.277926 185.06449 
L 178.277926 180.754286 
L 182.304115 180.754286 
L 182.304115 176.444082 
L 183.646179 176.444082 
L 183.646179 172.133878 
L 185.584714 172.133878 
L 185.584714 167.823673 
L 208.996259 167.823673 
L 208.996259 163.513469 
L 210.785676 163.513469 
L 210.785676 159.203265 
L 212.575094 159.203265 
L 212.575094 154.893061 
L 215.25922 154.893061 
L 215.25922 150.582857 
L 223.311598 150.582857 
L 223.311598 146.272653 
L 224.355425 146.272653 
L 224.355425 141.962449 
L 234.048103 141.962449 
L 234.048103 137.652245 
L 239.416355 137.652245 
L 239.416355 133.342041 
L 243.293426 133.342041 
L 243.293426 129.031837 
L 258.80171 129.031837 
L 258.80171 124.721633 
L 260.889364 124.721633 
L 260.889364 120.411429 
L 262.977018 120.411429 
L 262.977018 116.101224 
L 270.283805 116.101224 
L 270.283805 111.79102 
L 273.266168 111.79102 
L 273.266168 107.480816 
L 280.722074 107.480816 
L 280.722074 103.170612 
L 282.660609 103.170612 
L 282.660609 98.860408 
L 376.008552 98.860408 
L 376.008552 94.550204 
L 385.999466 94.550204 
L 385.999466 90.24 
L 648 90.24 
L 648 90.24 
" clip-path="url(#pb201212d19)" style="fill: none; stroke: #d62728; stroke-width: 2; stroke-linecap: square"/>
   </g>
   <g id="line2d_17">
    <path d="M 90 512.64 
L 90 403.347692 
L 90.4528 403.347692 
L 90.4528 400.393846 
L 91.358399 400.393846 
L 91.358399 397.44 
L 91.660265 397.44 
L 91.660265 394.486154 
L 91.811198 394.486154 
L 91.811198 385.624615 
L 92.113065 385.624615 
L 92.113065 379.716923 
L 93.018664 379.716923 
L 93.018664 376.763077 
L 94.527996 376.763077 
L 94.527996 373.809231 
L 94.678929 373.809231 
L 94.678929 367.901538 
L 94.980795 367.901538 
L 94.980795 364.947692 
L 95.433595 364.947692 
L 95.433595 361.993846 
L 95.886394 361.993846 
L 95.886394 356.086154 
L 97.09386 356.086154 
L 97.09386 353.132308 
L 97.244793 353.132308 
L 97.244793 350.178462 
L 97.697593 350.178462 
L 97.697593 347.224615 
L 99.810657 347.224615 
L 99.810657 344.270769 
L 101.018123 344.270769 
L 101.018123 341.316923 
L 103.433054 341.316923 
L 103.433054 338.363077 
L 103.885853 338.363077 
L 103.885853 335.409231 
L 105.093319 335.409231 
L 105.093319 332.455385 
L 105.546118 332.455385 
L 105.546118 329.501538 
L 105.998918 329.501538 
L 105.998918 326.547692 
L 106.753584 326.547692 
L 106.753584 323.593846 
L 107.50825 323.593846 
L 107.50825 320.64 
L 110.225047 320.64 
L 110.225047 317.686154 
L 112.489045 317.686154 
L 112.489045 314.732308 
L 114.903976 314.732308 
L 114.903976 311.778462 
L 116.262375 311.778462 
L 116.262375 308.824615 
L 116.866108 308.824615 
L 116.866108 305.870769 
L 117.318907 305.870769 
L 117.318907 302.916923 
L 118.979172 302.916923 
L 118.979172 297.009231 
L 125.167433 297.009231 
L 125.167433 294.055385 
L 125.318366 294.055385 
L 125.318366 291.101538 
L 126.676765 291.101538 
L 126.676765 288.147692 
L 127.88423 288.147692 
L 127.88423 285.193846 
L 128.487963 285.193846 
L 128.487963 279.286154 
L 130.450095 279.286154 
L 130.450095 276.332308 
L 132.11036 276.332308 
L 132.11036 273.378462 
L 133.015959 273.378462 
L 133.015959 270.424615 
L 133.770625 270.424615 
L 133.770625 267.470769 
L 139.355153 267.470769 
L 139.355153 264.516923 
L 139.657019 264.516923 
L 139.657019 261.563077 
L 143.581282 261.563077 
L 143.581282 258.609231 
L 143.732215 258.609231 
L 143.732215 255.655385 
L 146.29808 255.655385 
L 146.29808 252.701538 
L 146.750879 252.701538 
L 146.750879 249.747692 
L 151.580741 249.747692 
L 151.580741 246.793846 
L 154.901271 246.793846 
L 154.901271 243.84 
L 158.825534 243.84 
L 158.825534 240.886154 
L 166.22126 240.886154 
L 166.22126 237.932308 
L 168.787125 237.932308 
L 168.787125 234.978462 
L 171.654855 234.978462 
L 171.654855 232.024615 
L 172.107655 232.024615 
L 172.107655 229.070769 
L 172.711388 229.070769 
L 172.711388 226.116923 
L 174.22072 226.116923 
L 174.22072 223.163077 
L 174.824452 223.163077 
L 174.824452 220.209231 
L 175.730051 220.209231 
L 175.730051 217.255385 
L 176.333784 217.255385 
L 176.333784 211.347692 
L 178.295916 211.347692 
L 178.295916 208.393846 
L 182.823911 208.393846 
L 182.823911 205.44 
L 184.63511 205.44 
L 184.63511 202.486154 
L 185.842575 202.486154 
L 185.842575 199.532308 
L 191.27617 199.532308 
L 191.27617 196.578462 
L 194.898566 196.578462 
L 194.898566 193.624615 
L 195.502299 193.624615 
L 195.502299 190.670769 
L 195.653232 190.670769 
L 195.653232 187.716923 
L 197.615364 187.716923 
L 197.615364 184.763077 
L 197.91723 184.763077 
L 197.91723 181.809231 
L 199.577495 181.809231 
L 199.577495 178.855385 
L 202.596159 178.855385 
L 202.596159 175.901538 
L 202.747092 175.901538 
L 202.747092 172.947692 
L 204.860157 172.947692 
L 204.860157 169.993846 
L 206.520422 169.993846 
L 206.520422 167.04 
L 210.142819 167.04 
L 210.142819 164.086154 
L 210.293752 164.086154 
L 210.293752 161.132308 
L 210.746551 161.132308 
L 210.746551 158.178462 
L 210.897484 158.178462 
L 210.897484 155.224615 
L 211.350284 155.224615 
L 211.350284 152.270769 
L 212.255883 152.270769 
L 212.255883 149.316923 
L 225.83987 149.316923 
L 225.83987 146.363077 
L 226.896402 146.363077 
L 226.896402 143.409231 
L 232.631864 143.409231 
L 232.631864 140.455385 
L 234.744928 140.455385 
L 234.744928 137.501538 
L 236.405193 137.501538 
L 236.405193 134.547692 
L 241.989721 134.547692 
L 241.989721 131.593846 
L 245.008385 131.593846 
L 245.008385 128.64 
L 246.064918 128.64 
L 246.064918 125.686154 
L 248.328915 125.686154 
L 248.328915 122.732308 
L 251.951312 122.732308 
L 251.951312 116.824615 
L 252.856911 116.824615 
L 252.856911 113.870769 
L 255.422775 113.870769 
L 255.422775 110.916923 
L 255.573708 110.916923 
L 255.573708 107.963077 
L 264.025967 107.963077 
L 264.025967 105.009231 
L 273.685691 105.009231 
L 273.685691 102.055385 
L 282.741682 102.055385 
L 282.741682 99.101538 
L 295.87287 99.101538 
L 295.87287 96.147692 
L 302.96673 96.147692 
L 302.96673 93.193846 
L 308.853124 93.193846 
L 308.853124 90.24 
L 648 90.24 
L 648 90.24 
" clip-path="url(#pb201212d19)" style="fill: none; stroke: #9467bd; stroke-width: 2; stroke-linecap: square"/>
   </g>
   <g id="line2d_18">
    <path d="M 90 512.64 
L 648 90.24 
" clip-path="url(#pb201212d19)" style="fill: none; stroke-dasharray: 5.55,2.4; stroke-dashoffset: 0; stroke: #000000; stroke-width: 1.5"/>
   </g>
   <g id="patch_3">
    <path d="M 90 512.64 
L 90 69.12 
" style="fill: none; stroke: #000000; stroke-width: 0.8; stroke-linejoin: miter; stroke-linecap: square"/>
   </g>
   <g id="patch_4">
    <path d="M 648 512.64 
L 648 69.12 
" style="fill: none; stroke: #000000; stroke-width: 0.8; stroke-linejoin: miter; stroke-linecap: square"/>
   </g>
   <g id="patch_5">
    <path d="M 90 512.64 
L 648 512.64 
" style="fill: none; stroke: #000000; stroke-width: 0.8; stroke-linejoin: miter; stroke-linecap: square"/>
   </g>
   <g id="patch_6">
    <path d="M 90 69.12 
L 648 69.12 
" style="fill: none; stroke: #000000; stroke-width: 0.8; stroke-linejoin: miter; stroke-linecap: square"/>
   </g>
   <g id="text_15">
    <!-- ROC Curves for Selected Classes -->
    <g transform="translate(270.599063 63.12)scale(0.12 -0.12)">
     <defs>
      <path id="DejaVuSans-4f" d="M 2522 4238 
Q 1834 4238 1429 3725 
Q 1025 3213 1025 2328 
Q 1025 1447 1429 934 
Q 1834 422 2522 422 
Q 3209 422 3611 934 
Q 4013 1447 4013 2328 
Q 4013 3213 3611 3725 
Q 3209 4238 2522 4238 
z
M 2522 4750 
Q 3503 4750 4090 4092 
Q 4678 3434 4678 2328 
Q 4678 1225 4090 567 
Q 3503 -91 2522 -91 
Q 1538 -91 948 565 
Q 359 1222 359 2328 
Q 359 3434 948 4092 
Q 1538 4750 2522 4750 
z
" transform="scale(0.015625)"/>
      <path id="DejaVuSans-43" d="M 4122 4306 
L 4122 3641 
Q 3803 3938 3442 4084 
Q 3081 4231 2675 4231 
Q 1875 4231 1450 3742 
Q 1025 3253 1025 2328 
Q 1025 1406 1450 917 
Q 1875 428 2675 428 
Q 3081 428 3442 575 
Q 3803 722 4122 1019 
L 4122 359 
Q 3791 134 3420 21 
Q 3050 -91 2638 -91 
Q 1578 -91 968 557 
Q 359 1206 359 2328 
Q 359 3453 968 4101 
Q 1578 4750 2638 4750 
Q 3056 4750 3426 4639 
Q 3797 4528 4122 4306 
z
" transform="scale(0.015625)"/>
      <path id="DejaVuSans-66" d="M 2375 4863 
L 2375 4384 
L 1825 4384 
Q 1516 4384 1395 4259 
Q 1275 4134 1275 3809 
L 1275 3500 
L 2222 3500 
L 2222 3053 
L 1275 3053 
L 1275 0 
L 697 0 
L 697 3053 
L 147 3053 
L 147 3500 
L 697 3500 
L 697 3744 
Q 697 4328 969 4595 
Q 1241 4863 1831 4863 
L 2375 4863 
z
" transform="scale(0.015625)"/>
      <path id="DejaVuSans-53" d="M 3425 4513 
L 3425 3897 
Q 3066 4069 2747 4153 
Q 2428 4238 2131 4238 
Q 1616 4238 1336 4038 
Q 1056 3838 1056 3469 
Q 1056 3159 1242 3001 
Q 1428 2844 1947 2747 
L 2328 2669 
Q 3034 2534 3370 2195 
Q 3706 1856 3706 1288 
Q 3706 609 3251 259 
Q 2797 -91 1919 -91 
Q 1588 -91 1214 -16 
Q 841 59 441 206 
L 441 856 
Q 825 641 1194 531 
Q 1563 422 1919 422 
Q 2459 422 2753 634 
Q 3047 847 3047 1241 
Q 3047 1584 2836 1778 
Q 2625 1972 2144 2069 
L 1759 2144 
Q 1053 2284 737 2584 
Q 422 2884 422 3419 
Q 422 4038 858 4394 
Q 1294 4750 2059 4750 
Q 2388 4750 2728 4690 
Q 3069 4631 3425 4513 
z
" transform="scale(0.015625)"/>
      <path id="DejaVuSans-63" d="M 3122 3366 
L 3122 2828 
Q 2878 2963 2633 3030 
Q 2388 3097 2138 3097 
Q 1578 3097 1268 2742 
Q 959 2388 959 1747 
Q 959 1106 1268 751 
Q 1578 397 2138 397 
Q 2388 397 2633 464 
Q 2878 531 3122 666 
L 3122 134 
Q 2881 22 2623 -34 
Q 2366 -91 2075 -91 
Q 1284 -91 818 406 
Q 353 903 353 1747 
Q 353 2603 823 3093 
Q 1294 3584 2113 3584 
Q 2378 3584 2631 3529 
Q 2884 3475 3122 3366 
z
" transform="scale(0.015625)"/>
      <path id="DejaVuSans-64" d="M 2906 2969 
L 2906 4863 
L 3481 4863 
L 3481 0 
L 2906 0 
L 2906 525 
Q 2725 213 2448 61 
Q 2172 -91 1784 -91 
Q 1150 -91 751 415 
Q 353 922 353 1747 
Q 353 2572 751 3078 
Q 1150 3584 1784 3584 
Q 2172 3584 2448 3432 
Q 2725 3281 2906 2969 
z
M 947 1747 
Q 947 1113 1208 752 
Q 1469 391 1925 391 
Q 2381 391 2643 752 
Q 2906 1113 2906 1747 
Q 2906 2381 2643 2742 
Q 2381 3103 1925 3103 
Q 1469 3103 1208 2742 
Q 947 2381 947 1747 
z
" transform="scale(0.015625)"/>
     </defs>
     <use xlink:href="#DejaVuSans-52"/>
     <use xlink:href="#DejaVuSans-4f" x="69.482422"/>
     <use xlink:href="#DejaVuSans-43" x="148.193359"/>
     <use xlink:href="#DejaVuSans-20" x="218.017578"/>
     <use xlink:href="#DejaVuSans-43" x="249.804688"/>
     <use xlink:href="#DejaVuSans-75" x="319.628906"/>
     <use xlink:href="#DejaVuSans-72" x="383.007812"/>
     <use xlink:href="#DejaVuSans-76" x="424.121094"/>
     <use xlink:href="#DejaVuSans-65" x="483.300781"/>
     <use xlink:href="#DejaVuSans-73" x="544.824219"/>
     <use xlink:href="#DejaVuSans-20" x="596.923828"/>
     <use xlink:href="#DejaVuSans-66" x="628.710938"/>
     <use xlink:href="#DejaVuSans-6f" x="663.916016"/>
     <use xlink:href="#DejaVuSans-72" x="725.097656"/>
     <use xlink:href="#DejaVuSans-20" x="766.210938"/>
     <use xlink:href="#DejaVuSans-53" x="797.998047"/>
     <use xlink:href="#DejaVuSans-65" x="861.474609"/>
     <use xlink:href="#DejaVuSans-6c" x="922.998047"/>
     <use xlink:href="#DejaVuSans-65" x="950.78125"/>
     <use xlink:href="#DejaVuSans-63" x="1012.304688"/>
     <use xlink:href="#DejaVuSans-74" x="1067.285156"/>
     <use xlink:href="#DejaVuSans-65" x="1106.494141"/>
     <use xlink:href="#DejaVuSans-64" x="1168.017578"/>
     <use xlink:href="#DejaVuSans-20" x="1231.494141"/>
     <use xlink:href="#DejaVuSans-43" x="1263.28125"/>
     <use xlink:href="#DejaVuSans-6c" x="1333.105469"/>
     <use xlink:href="#DejaVuSans-61" x="1360.888672"/>
     <use xlink:href="#DejaVuSans-73" x="1422.167969"/>
     <use xlink:href="#DejaVuSans-73" x="1474.267578"/>
     <use xlink:href="#DejaVuSans-65" x="1526.367188"/>
     <use xlink:href="#DejaVuSans-73" x="1587.890625"/>
    </g>
   </g>
   <g id="legend_1">
    <g id="line2d_19">
     <path d="M 380.995313 380.714063 
L 398.995313 380.714063 
L 416.995313 380.714063 
" style="fill: none; stroke: #1f77b4; stroke-width: 2; stroke-linecap: square"/>
    </g>
    <g id="text_16">
     <!-- Class 28 (AUC = 0.87) -->
     <g transform="translate(431.395312 387.014063)scale(0.18 -0.18)">
      <defs>
       <path id="DejaVuSans-28" d="M 1984 4856 
Q 1566 4138 1362 3434 
Q 1159 2731 1159 2009 
Q 1159 1288 1364 580 
Q 1569 -128 1984 -844 
L 1484 -844 
Q 1016 -109 783 600 
Q 550 1309 550 2009 
Q 550 2706 781 3412 
Q 1013 4119 1484 4856 
L 1984 4856 
z
" transform="scale(0.015625)"/>
       <path id="DejaVuSans-41" d="M 2188 4044 
L 1331 1722 
L 3047 1722 
L 2188 4044 
z
M 1831 4666 
L 2547 4666 
L 4325 0 
L 3669 0 
L 3244 1197 
L 1141 1197 
L 716 0 
L 50 0 
L 1831 4666 
z
" transform="scale(0.015625)"/>
       <path id="DejaVuSans-55" d="M 556 4666 
L 1191 4666 
L 1191 1831 
Q 1191 1081 1462 751 
Q 1734 422 2344 422 
Q 2950 422 3222 751 
Q 3494 1081 3494 1831 
L 3494 4666 
L 4128 4666 
L 4128 1753 
Q 4128 841 3676 375 
Q 3225 -91 2344 -91 
Q 1459 -91 1007 375 
Q 556 841 556 1753 
L 556 4666 
z
" transform="scale(0.015625)"/>
       <path id="DejaVuSans-3d" d="M 678 2906 
L 4684 2906 
L 4684 2381 
L 678 2381 
L 678 2906 
z
M 678 1631 
L 4684 1631 
L 4684 1100 
L 678 1100 
L 678 1631 
z
" transform="scale(0.015625)"/>
       <path id="DejaVuSans-37" d="M 525 4666 
L 3525 4666 
L 3525 4397 
L 1831 0 
L 1172 0 
L 2766 4134 
L 525 4134 
L 525 4666 
z
" transform="scale(0.015625)"/>
       <path id="DejaVuSans-29" d="M 513 4856 
L 1013 4856 
Q 1481 4119 1714 3412 
Q 1947 2706 1947 2009 
Q 1947 1309 1714 600 
Q 1481 -109 1013 -844 
L 513 -844 
Q 928 -128 1133 580 
Q 1338 1288 1338 2009 
Q 1338 2731 1133 3434 
Q 928 4138 513 4856 
z
" transform="scale(0.015625)"/>
      </defs>
      <use xlink:href="#DejaVuSans-43"/>
      <use xlink:href="#DejaVuSans-6c" x="69.824219"/>
      <use xlink:href="#DejaVuSans-61" x="97.607422"/>
      <use xlink:href="#DejaVuSans-73" x="158.886719"/>
      <use xlink:href="#DejaVuSans-73" x="210.986328"/>
      <use xlink:href="#DejaVuSans-20" x="263.085938"/>
      <use xlink:href="#DejaVuSans-32" x="294.873047"/>
      <use xlink:href="#DejaVuSans-38" x="358.496094"/>
      <use xlink:href="#DejaVuSans-20" x="422.119141"/>
      <use xlink:href="#DejaVuSans-28" x="453.90625"/>
      <use xlink:href="#DejaVuSans-41" x="492.919922"/>
      <use xlink:href="#DejaVuSans-55" x="561.328125"/>
      <use xlink:href="#DejaVuSans-43" x="634.521484"/>
      <use xlink:href="#DejaVuSans-20" x="704.345703"/>
      <use xlink:href="#DejaVuSans-3d" x="736.132812"/>
      <use xlink:href="#DejaVuSans-20" x="819.921875"/>
      <use xlink:href="#DejaVuSans-30" x="851.708984"/>
      <use xlink:href="#DejaVuSans-2e" x="915.332031"/>
      <use xlink:href="#DejaVuSans-38" x="947.119141"/>
      <use xlink:href="#DejaVuSans-37" x="1010.742188"/>
      <use xlink:href="#DejaVuSans-29" x="1074.365234"/>
     </g>
    </g>
    <g id="line2d_20">
     <path d="M 380.995313 407.134687 
L 398.995313 407.134687 
L 416.995313 407.134687 
" style="fill: none; stroke: #ff7f0e; stroke-width: 2; stroke-linecap: square"/>
    </g>
    <g id="text_17">
     <!-- Class 42 (AUC = 0.95) -->
     <g transform="translate(431.395312 413.434687)scale(0.18 -0.18)">
      <defs>
       <path id="DejaVuSans-39" d="M 703 97 
L 703 672 
Q 941 559 1184 500 
Q 1428 441 1663 441 
Q 2288 441 2617 861 
Q 2947 1281 2994 2138 
Q 2813 1869 2534 1725 
Q 2256 1581 1919 1581 
Q 1219 1581 811 2004 
Q 403 2428 403 3163 
Q 403 3881 828 4315 
Q 1253 4750 1959 4750 
Q 2769 4750 3195 4129 
Q 3622 3509 3622 2328 
Q 3622 1225 3098 567 
Q 2575 -91 1691 -91 
Q 1453 -91 1209 -44 
Q 966 3 703 97 
z
M 1959 2075 
Q 2384 2075 2632 2365 
Q 2881 2656 2881 3163 
Q 2881 3666 2632 3958 
Q 2384 4250 1959 4250 
Q 1534 4250 1286 3958 
Q 1038 3666 1038 3163 
Q 1038 2656 1286 2365 
Q 1534 2075 1959 2075 
z
" transform="scale(0.015625)"/>
       <path id="DejaVuSans-35" d="M 691 4666 
L 3169 4666 
L 3169 4134 
L 1269 4134 
L 1269 2991 
Q 1406 3038 1543 3061 
Q 1681 3084 1819 3084 
Q 2600 3084 3056 2656 
Q 3513 2228 3513 1497 
Q 3513 744 3044 326 
Q 2575 -91 1722 -91 
Q 1428 -91 1123 -41 
Q 819 9 494 109 
L 494 744 
Q 775 591 1075 516 
Q 1375 441 1709 441 
Q 2250 441 2565 725 
Q 2881 1009 2881 1497 
Q 2881 1984 2565 2268 
Q 2250 2553 1709 2553 
Q 1456 2553 1204 2497 
Q 953 2441 691 2322 
L 691 4666 
z
" transform="scale(0.015625)"/>
      </defs>
      <use xlink:href="#DejaVuSans-43"/>
      <use xlink:href="#DejaVuSans-6c" x="69.824219"/>
      <use xlink:href="#DejaVuSans-61" x="97.607422"/>
      <use xlink:href="#DejaVuSans-73" x="158.886719"/>
      <use xlink:href="#DejaVuSans-73" x="210.986328"/>
      <use xlink:href="#DejaVuSans-20" x="263.085938"/>
      <use xlink:href="#DejaVuSans-34" x="294.873047"/>
      <use xlink:href="#DejaVuSans-32" x="358.496094"/>
      <use xlink:href="#DejaVuSans-20" x="422.119141"/>
      <use xlink:href="#DejaVuSans-28" x="453.90625"/>
      <use xlink:href="#DejaVuSans-41" x="492.919922"/>
      <use xlink:href="#DejaVuSans-55" x="561.328125"/>
      <use xlink:href="#DejaVuSans-43" x="634.521484"/>
      <use xlink:href="#DejaVuSans-20" x="704.345703"/>
      <use xlink:href="#DejaVuSans-3d" x="736.132812"/>
      <use xlink:href="#DejaVuSans-20" x="819.921875"/>
      <use xlink:href="#DejaVuSans-30" x="851.708984"/>
      <use xlink:href="#DejaVuSans-2e" x="915.332031"/>
      <use xlink:href="#DejaVuSans-39" x="947.119141"/>
      <use xlink:href="#DejaVuSans-35" x="1010.742188"/>
      <use xlink:href="#DejaVuSans-29" x="1074.365234"/>
     </g>
    </g>
    <g id="line2d_21">
     <path d="M 380.995313 433.555313 
L 398.995313 433.555313 
L 416.995313 433.555313 
" style="fill: none; stroke: #2ca02c; stroke-width: 2; stroke-linecap: square"/>
    </g>
    <g id="text_18">
     <!-- Class 50 (AUC = 0.93) -->
     <g transform="translate(431.395312 439.855313)scale(0.18 -0.18)">
      <defs>
       <path id="DejaVuSans-33" d="M 2597 2516 
Q 3050 2419 3304 2112 
Q 3559 1806 3559 1356 
Q 3559 666 3084 287 
Q 2609 -91 1734 -91 
Q 1441 -91 1130 -33 
Q 819 25 488 141 
L 488 750 
Q 750 597 1062 519 
Q 1375 441 1716 441 
Q 2309 441 2620 675 
Q 2931 909 2931 1356 
Q 2931 1769 2642 2001 
Q 2353 2234 1838 2234 
L 1294 2234 
L 1294 2753 
L 1863 2753 
Q 2328 2753 2575 2939 
Q 2822 3125 2822 3475 
Q 2822 3834 2567 4026 
Q 2313 4219 1838 4219 
Q 1578 4219 1281 4162 
Q 984 4106 628 3988 
L 628 4550 
Q 988 4650 1302 4700 
Q 1616 4750 1894 4750 
Q 2613 4750 3031 4423 
Q 3450 4097 3450 3541 
Q 3450 3153 3228 2886 
Q 3006 2619 2597 2516 
z
" transform="scale(0.015625)"/>
      </defs>
      <use xlink:href="#DejaVuSans-43"/>
      <use xlink:href="#DejaVuSans-6c" x="69.824219"/>
      <use xlink:href="#DejaVuSans-61" x="97.607422"/>
      <use xlink:href="#DejaVuSans-73" x="158.886719"/>
      <use xlink:href="#DejaVuSans-73" x="210.986328"/>
      <use xlink:href="#DejaVuSans-20" x="263.085938"/>
      <use xlink:href="#DejaVuSans-35" x="294.873047"/>
      <use xlink:href="#DejaVuSans-30" x="358.496094"/>
      <use xlink:href="#DejaVuSans-20" x="422.119141"/>
      <use xlink:href="#DejaVuSans-28" x="453.90625"/>
      <use xlink:href="#DejaVuSans-41" x="492.919922"/>
      <use xlink:href="#DejaVuSans-55" x="561.328125"/>
      <use xlink:href="#DejaVuSans-43" x="634.521484"/>
      <use xlink:href="#DejaVuSans-20" x="704.345703"/>
      <use xlink:href="#DejaVuSans-3d" x="736.132812"/>
      <use xlink:href="#DejaVuSans-20" x="819.921875"/>
      <use xlink:href="#DejaVuSans-30" x="851.708984"/>
      <use xlink:href="#DejaVuSans-2e" x="915.332031"/>
      <use xlink:href="#DejaVuSans-39" x="947.119141"/>
      <use xlink:href="#DejaVuSans-33" x="1010.742188"/>
      <use xlink:href="#DejaVuSans-29" x="1074.365234"/>
     </g>
    </g>
    <g id="line2d_22">
     <path d="M 380.995313 459.975937 
L 398.995313 459.975937 
L 416.995313 459.975937 
" style="fill: none; stroke: #d62728; stroke-width: 2; stroke-linecap: square"/>
    </g>
    <g id="text_19">
     <!-- Class 66 (AUC = 0.90) -->
     <g transform="translate(431.395312 466.275937)scale(0.18 -0.18)">
      <use xlink:href="#DejaVuSans-43"/>
      <use xlink:href="#DejaVuSans-6c" x="69.824219"/>
      <use xlink:href="#DejaVuSans-61" x="97.607422"/>
      <use xlink:href="#DejaVuSans-73" x="158.886719"/>
      <use xlink:href="#DejaVuSans-73" x="210.986328"/>
      <use xlink:href="#DejaVuSans-20" x="263.085938"/>
      <use xlink:href="#DejaVuSans-36" x="294.873047"/>
      <use xlink:href="#DejaVuSans-36" x="358.496094"/>
      <use xlink:href="#DejaVuSans-20" x="422.119141"/>
      <use xlink:href="#DejaVuSans-28" x="453.90625"/>
      <use xlink:href="#DejaVuSans-41" x="492.919922"/>
      <use xlink:href="#DejaVuSans-55" x="561.328125"/>
      <use xlink:href="#DejaVuSans-43" x="634.521484"/>
      <use xlink:href="#DejaVuSans-20" x="704.345703"/>
      <use xlink:href="#DejaVuSans-3d" x="736.132812"/>
      <use xlink:href="#DejaVuSans-20" x="819.921875"/>
      <use xlink:href="#DejaVuSans-30" x="851.708984"/>
      <use xlink:href="#DejaVuSans-2e" x="915.332031"/>
      <use xlink:href="#DejaVuSans-39" x="947.119141"/>
      <use xlink:href="#DejaVuSans-30" x="1010.742188"/>
      <use xlink:href="#DejaVuSans-29" x="1074.365234"/>
     </g>
    </g>
    <g id="line2d_23">
     <path d="M 380.995313 486.396563 
L 398.995313 486.396563 
L 416.995313 486.396563 
" style="fill: none; stroke: #9467bd; stroke-width: 2; stroke-linecap: square"/>
    </g>
    <g id="text_20">
     <!-- Class 92 (AUC = 0.90) -->
     <g transform="translate(431.395312 492.696563)scale(0.18 -0.18)">
      <use xlink:href="#DejaVuSans-43"/>
      <use xlink:href="#DejaVuSans-6c" x="69.824219"/>
      <use xlink:href="#DejaVuSans-61" x="97.607422"/>
      <use xlink:href="#DejaVuSans-73" x="158.886719"/>
      <use xlink:href="#DejaVuSans-73" x="210.986328"/>
      <use xlink:href="#DejaVuSans-20" x="263.085938"/>
      <use xlink:href="#DejaVuSans-39" x="294.873047"/>
      <use xlink:href="#DejaVuSans-32" x="358.496094"/>
      <use xlink:href="#DejaVuSans-20" x="422.119141"/>
      <use xlink:href="#DejaVuSans-28" x="453.90625"/>
      <use xlink:href="#DejaVuSans-41" x="492.919922"/>
      <use xlink:href="#DejaVuSans-55" x="561.328125"/>
      <use xlink:href="#DejaVuSans-43" x="634.521484"/>
      <use xlink:href="#DejaVuSans-20" x="704.345703"/>
      <use xlink:href="#DejaVuSans-3d" x="736.132812"/>
      <use xlink:href="#DejaVuSans-20" x="819.921875"/>
      <use xlink:href="#DejaVuSans-30" x="851.708984"/>
      <use xlink:href="#DejaVuSans-2e" x="915.332031"/>
      <use xlink:href="#DejaVuSans-39" x="947.119141"/>
      <use xlink:href="#DejaVuSans-30" x="1010.742188"/>
      <use xlink:href="#DejaVuSans-29" x="1074.365234"/>
     </g>
    </g>
   </g>
  </g>
 </g>
 <defs>
  <clipPath id="pb201212d19">
   <rect x="90" y="69.12" width="558" height="443.52"/>
  </clipPath>
 </defs>
</svg>
